<mxfile host="app.diagrams.net" agent="Mozilla/5.0 (Windows NT 10.0; Win64; x64; rv:137.0) Gecko/20100101 Firefox/137.0" version="26.2.8">
  <diagram name="Page-1" id="8mONMPCxRlwukQBADPpY">
    <mxGraphModel dx="1833" dy="764" grid="1" gridSize="10" guides="1" tooltips="1" connect="1" arrows="1" fold="1" page="1" pageScale="1" pageWidth="827" pageHeight="1169" math="0" shadow="0">
      <root>
        <mxCell id="0" />
        <mxCell id="1" parent="0" />
        <mxCell id="EHrCVIZnscvrFo70y-NR-1" value="" style="rounded=0;whiteSpace=wrap;html=1;" parent="1" vertex="1">
          <mxGeometry x="19" y="10" width="790" height="770" as="geometry" />
        </mxCell>
        <mxCell id="Vk1aVY3iFJ2abiyEyi6g-13" style="edgeStyle=orthogonalEdgeStyle;rounded=0;orthogonalLoop=1;jettySize=auto;html=1;entryX=0.5;entryY=0;entryDx=0;entryDy=0;exitX=0.231;exitY=1.038;exitDx=0;exitDy=0;exitPerimeter=0;" parent="1" source="Vk1aVY3iFJ2abiyEyi6g-21" target="Vk1aVY3iFJ2abiyEyi6g-12" edge="1">
          <mxGeometry relative="1" as="geometry">
            <mxPoint x="405" y="300" as="sourcePoint" />
          </mxGeometry>
        </mxCell>
        <mxCell id="Vk1aVY3iFJ2abiyEyi6g-14" value="If General User" style="edgeLabel;html=1;align=center;verticalAlign=middle;resizable=0;points=[];" parent="Vk1aVY3iFJ2abiyEyi6g-13" vertex="1" connectable="0">
          <mxGeometry x="-0.163" relative="1" as="geometry">
            <mxPoint x="-23" as="offset" />
          </mxGeometry>
        </mxCell>
        <mxCell id="Vk1aVY3iFJ2abiyEyi6g-17" style="edgeStyle=orthogonalEdgeStyle;rounded=0;orthogonalLoop=1;jettySize=auto;html=1;exitX=0.775;exitY=1.038;exitDx=0;exitDy=0;exitPerimeter=0;" parent="1" source="Vk1aVY3iFJ2abiyEyi6g-21" target="Vk1aVY3iFJ2abiyEyi6g-16" edge="1">
          <mxGeometry relative="1" as="geometry">
            <mxPoint x="465" y="300" as="sourcePoint" />
          </mxGeometry>
        </mxCell>
        <mxCell id="Vk1aVY3iFJ2abiyEyi6g-19" value="&lt;div&gt;If Admin&lt;/div&gt;" style="edgeLabel;html=1;align=center;verticalAlign=middle;resizable=0;points=[];" parent="Vk1aVY3iFJ2abiyEyi6g-17" vertex="1" connectable="0">
          <mxGeometry x="-0.1714" y="2" relative="1" as="geometry">
            <mxPoint x="24" as="offset" />
          </mxGeometry>
        </mxCell>
        <mxCell id="Vk1aVY3iFJ2abiyEyi6g-27" style="edgeStyle=orthogonalEdgeStyle;rounded=0;orthogonalLoop=1;jettySize=auto;html=1;exitX=0.5;exitY=1;exitDx=0;exitDy=0;entryX=0.5;entryY=0;entryDx=0;entryDy=0;" parent="1" source="Vk1aVY3iFJ2abiyEyi6g-6" target="Vk1aVY3iFJ2abiyEyi6g-26" edge="1">
          <mxGeometry relative="1" as="geometry" />
        </mxCell>
        <mxCell id="Vk1aVY3iFJ2abiyEyi6g-6" value="" style="ellipse;shape=doubleEllipse;html=1;dashed=0;whiteSpace=wrap;aspect=fixed;fillColor=#000000;" parent="1" vertex="1">
          <mxGeometry x="415" y="80" width="40" height="40" as="geometry" />
        </mxCell>
        <mxCell id="Vk1aVY3iFJ2abiyEyi6g-10" value="" style="group" parent="1" vertex="1" connectable="0">
          <mxGeometry x="415" y="700" width="40" height="40" as="geometry" />
        </mxCell>
        <mxCell id="Vk1aVY3iFJ2abiyEyi6g-9" value="" style="ellipse;whiteSpace=wrap;html=1;aspect=fixed;" parent="Vk1aVY3iFJ2abiyEyi6g-10" vertex="1">
          <mxGeometry width="40" height="40" as="geometry" />
        </mxCell>
        <mxCell id="Vk1aVY3iFJ2abiyEyi6g-8" value="" style="ellipse;shape=doubleEllipse;html=1;dashed=0;whiteSpace=wrap;aspect=fixed;fillColor=#000000;" parent="Vk1aVY3iFJ2abiyEyi6g-10" vertex="1">
          <mxGeometry x="4" y="4" width="32" height="32" as="geometry" />
        </mxCell>
        <mxCell id="Vk1aVY3iFJ2abiyEyi6g-11" value="&lt;font style=&quot;font-size: 16px;&quot;&gt;&lt;b&gt;Start&lt;/b&gt;&lt;/font&gt;" style="text;html=1;align=center;verticalAlign=middle;whiteSpace=wrap;rounded=0;" parent="1" vertex="1">
          <mxGeometry x="405" y="50" width="60" height="30" as="geometry" />
        </mxCell>
        <mxCell id="Vk1aVY3iFJ2abiyEyi6g-12" value="Viewing Home Page" style="rounded=1;whiteSpace=wrap;html=1;" parent="1" vertex="1">
          <mxGeometry x="175" y="340" width="120" height="60" as="geometry" />
        </mxCell>
        <mxCell id="Vk1aVY3iFJ2abiyEyi6g-16" value="On Admin Dashboard" style="rounded=1;whiteSpace=wrap;html=1;" parent="1" vertex="1">
          <mxGeometry x="575" y="340" width="120" height="60" as="geometry" />
        </mxCell>
        <mxCell id="Vk1aVY3iFJ2abiyEyi6g-21" value="" style="line;strokeWidth=4;fillColor=default;align=left;verticalAlign=middle;spacingTop=-1;spacingLeft=3;spacingRight=3;rotatable=0;labelPosition=right;points=[];portConstraint=eastwest;strokeColor=inherit;" parent="1" vertex="1">
          <mxGeometry x="380" y="270" width="110" height="4" as="geometry" />
        </mxCell>
        <mxCell id="Vk1aVY3iFJ2abiyEyi6g-23" style="edgeStyle=orthogonalEdgeStyle;rounded=0;orthogonalLoop=1;jettySize=auto;html=1;exitX=0.5;exitY=1;exitDx=0;exitDy=0;" parent="1" edge="1">
          <mxGeometry relative="1" as="geometry">
            <mxPoint x="435" y="219.9999999999999" as="sourcePoint" />
            <mxPoint x="435" y="270" as="targetPoint" />
          </mxGeometry>
        </mxCell>
        <mxCell id="Vk1aVY3iFJ2abiyEyi6g-24" value="User Login" style="edgeLabel;html=1;align=center;verticalAlign=middle;resizable=0;points=[];" parent="Vk1aVY3iFJ2abiyEyi6g-23" vertex="1" connectable="0">
          <mxGeometry x="-0.1793" y="-1" relative="1" as="geometry">
            <mxPoint as="offset" />
          </mxGeometry>
        </mxCell>
        <mxCell id="Vk1aVY3iFJ2abiyEyi6g-25" value="See Current Events" style="rounded=1;whiteSpace=wrap;html=1;" parent="1" vertex="1">
          <mxGeometry x="85" y="480" width="90" height="50" as="geometry" />
        </mxCell>
        <mxCell id="Vk1aVY3iFJ2abiyEyi6g-26" value="Logged Out" style="rounded=1;whiteSpace=wrap;html=1;" parent="1" vertex="1">
          <mxGeometry x="375" y="160" width="120" height="60" as="geometry" />
        </mxCell>
        <mxCell id="Vk1aVY3iFJ2abiyEyi6g-29" value="Checks Messsages" style="rounded=1;whiteSpace=wrap;html=1;" parent="1" vertex="1">
          <mxGeometry x="190" y="480" width="90" height="50" as="geometry" />
        </mxCell>
        <mxCell id="Vk1aVY3iFJ2abiyEyi6g-30" value="View / Create Post" style="rounded=1;whiteSpace=wrap;html=1;" parent="1" vertex="1">
          <mxGeometry x="295" y="480" width="90" height="50" as="geometry" />
        </mxCell>
        <mxCell id="Vk1aVY3iFJ2abiyEyi6g-31" value="Manages Events" style="rounded=1;whiteSpace=wrap;html=1;" parent="1" vertex="1">
          <mxGeometry x="485" y="480" width="90" height="50" as="geometry" />
        </mxCell>
        <mxCell id="Vk1aVY3iFJ2abiyEyi6g-32" value="Manages Users" style="rounded=1;whiteSpace=wrap;html=1;" parent="1" vertex="1">
          <mxGeometry x="590" y="480" width="90" height="50" as="geometry" />
        </mxCell>
        <mxCell id="Vk1aVY3iFJ2abiyEyi6g-33" value="Manage Posts" style="rounded=1;whiteSpace=wrap;html=1;" parent="1" vertex="1">
          <mxGeometry x="695" y="480" width="90" height="50" as="geometry" />
        </mxCell>
        <mxCell id="Vk1aVY3iFJ2abiyEyi6g-35" value="" style="line;strokeWidth=4;fillColor=default;align=left;verticalAlign=middle;spacingTop=-1;spacingLeft=3;spacingRight=3;rotatable=0;labelPosition=right;points=[];portConstraint=eastwest;strokeColor=inherit;" parent="1" vertex="1">
          <mxGeometry x="180" y="434" width="110" height="4" as="geometry" />
        </mxCell>
        <mxCell id="Vk1aVY3iFJ2abiyEyi6g-36" value="" style="line;strokeWidth=4;fillColor=default;align=left;verticalAlign=middle;spacingTop=-1;spacingLeft=3;spacingRight=3;rotatable=0;labelPosition=right;points=[];portConstraint=eastwest;strokeColor=inherit;" parent="1" vertex="1">
          <mxGeometry x="580" y="434" width="110" height="4" as="geometry" />
        </mxCell>
        <mxCell id="Vk1aVY3iFJ2abiyEyi6g-37" style="edgeStyle=orthogonalEdgeStyle;rounded=0;orthogonalLoop=1;jettySize=auto;html=1;exitX=0.5;exitY=1;exitDx=0;exitDy=0;entryX=0.498;entryY=-0.041;entryDx=0;entryDy=0;entryPerimeter=0;" parent="1" source="Vk1aVY3iFJ2abiyEyi6g-12" target="Vk1aVY3iFJ2abiyEyi6g-35" edge="1">
          <mxGeometry relative="1" as="geometry">
            <mxPoint x="235" y="430" as="targetPoint" />
          </mxGeometry>
        </mxCell>
        <mxCell id="Vk1aVY3iFJ2abiyEyi6g-38" style="edgeStyle=orthogonalEdgeStyle;rounded=0;orthogonalLoop=1;jettySize=auto;html=1;exitX=0.5;exitY=1;exitDx=0;exitDy=0;entryX=0.501;entryY=-0.038;entryDx=0;entryDy=0;entryPerimeter=0;" parent="1" source="Vk1aVY3iFJ2abiyEyi6g-16" target="Vk1aVY3iFJ2abiyEyi6g-36" edge="1">
          <mxGeometry relative="1" as="geometry" />
        </mxCell>
        <mxCell id="Vk1aVY3iFJ2abiyEyi6g-39" value="" style="endArrow=classic;html=1;rounded=0;exitX=0.183;exitY=0.778;exitDx=0;exitDy=0;exitPerimeter=0;entryX=0.5;entryY=0;entryDx=0;entryDy=0;" parent="1" source="Vk1aVY3iFJ2abiyEyi6g-35" target="Vk1aVY3iFJ2abiyEyi6g-25" edge="1">
          <mxGeometry width="50" height="50" relative="1" as="geometry">
            <mxPoint x="255" y="490" as="sourcePoint" />
            <mxPoint x="305" y="440" as="targetPoint" />
            <Array as="points">
              <mxPoint x="200" y="460" />
              <mxPoint x="130" y="460" />
            </Array>
          </mxGeometry>
        </mxCell>
        <mxCell id="Vk1aVY3iFJ2abiyEyi6g-42" value="" style="endArrow=classic;html=1;rounded=0;entryX=0.5;entryY=0;entryDx=0;entryDy=0;" parent="1" edge="1" target="Vk1aVY3iFJ2abiyEyi6g-30">
          <mxGeometry width="50" height="50" relative="1" as="geometry">
            <mxPoint x="270" y="438" as="sourcePoint" />
            <mxPoint x="385" y="480" as="targetPoint" />
            <Array as="points">
              <mxPoint x="270" y="460" />
              <mxPoint x="340" y="460" />
            </Array>
          </mxGeometry>
        </mxCell>
        <mxCell id="Vk1aVY3iFJ2abiyEyi6g-43" value="" style="endArrow=classic;html=1;rounded=0;exitX=0.499;exitY=0.898;exitDx=0;exitDy=0;exitPerimeter=0;entryX=0.5;entryY=0;entryDx=0;entryDy=0;" parent="1" source="Vk1aVY3iFJ2abiyEyi6g-36" target="Vk1aVY3iFJ2abiyEyi6g-32" edge="1">
          <mxGeometry width="50" height="50" relative="1" as="geometry">
            <mxPoint x="655" y="450" as="sourcePoint" />
            <mxPoint x="705" y="400" as="targetPoint" />
          </mxGeometry>
        </mxCell>
        <mxCell id="Vk1aVY3iFJ2abiyEyi6g-44" value="" style="endArrow=classic;html=1;rounded=0;exitX=0.226;exitY=0.893;exitDx=0;exitDy=0;exitPerimeter=0;entryX=0.5;entryY=0;entryDx=0;entryDy=0;" parent="1" source="Vk1aVY3iFJ2abiyEyi6g-36" target="Vk1aVY3iFJ2abiyEyi6g-31" edge="1">
          <mxGeometry width="50" height="50" relative="1" as="geometry">
            <mxPoint x="565" y="470" as="sourcePoint" />
            <mxPoint x="615" y="420" as="targetPoint" />
            <Array as="points">
              <mxPoint x="605" y="460" />
              <mxPoint x="530" y="460" />
            </Array>
          </mxGeometry>
        </mxCell>
        <mxCell id="Vk1aVY3iFJ2abiyEyi6g-45" value="" style="endArrow=classic;html=1;rounded=0;exitX=0.226;exitY=0.893;exitDx=0;exitDy=0;exitPerimeter=0;entryX=0.5;entryY=0;entryDx=0;entryDy=0;" parent="1" edge="1">
          <mxGeometry width="50" height="50" relative="1" as="geometry">
            <mxPoint x="665" y="438" as="sourcePoint" />
            <mxPoint x="740" y="480" as="targetPoint" />
            <Array as="points">
              <mxPoint x="665" y="460" />
              <mxPoint x="740" y="460" />
            </Array>
          </mxGeometry>
        </mxCell>
        <mxCell id="Vk1aVY3iFJ2abiyEyi6g-46" value="" style="line;strokeWidth=4;fillColor=default;align=left;verticalAlign=middle;spacingTop=-1;spacingLeft=3;spacingRight=3;rotatable=0;labelPosition=right;points=[];portConstraint=eastwest;strokeColor=inherit;" parent="1" vertex="1">
          <mxGeometry x="175" y="570" width="110" height="4" as="geometry" />
        </mxCell>
        <mxCell id="Vk1aVY3iFJ2abiyEyi6g-49" value="" style="endArrow=classic;html=1;rounded=0;exitX=0.5;exitY=1;exitDx=0;exitDy=0;entryX=0.543;entryY=0.459;entryDx=0;entryDy=0;entryPerimeter=0;" parent="1" edge="1" target="Vk1aVY3iFJ2abiyEyi6g-46" source="Vk1aVY3iFJ2abiyEyi6g-29">
          <mxGeometry width="50" height="50" relative="1" as="geometry">
            <mxPoint x="185.34000000000003" y="529.998" as="sourcePoint" />
            <mxPoint x="225" y="570" as="targetPoint" />
            <Array as="points">
              <mxPoint x="235" y="550" />
            </Array>
          </mxGeometry>
        </mxCell>
        <mxCell id="Vk1aVY3iFJ2abiyEyi6g-50" value="" style="endArrow=classic;html=1;rounded=0;" parent="1" edge="1">
          <mxGeometry width="50" height="50" relative="1" as="geometry">
            <mxPoint x="85" y="530" as="sourcePoint" />
            <mxPoint x="200" y="570" as="targetPoint" />
            <Array as="points">
              <mxPoint x="85" y="560" />
              <mxPoint x="200" y="560" />
            </Array>
          </mxGeometry>
        </mxCell>
        <mxCell id="Vk1aVY3iFJ2abiyEyi6g-51" value="" style="endArrow=classic;html=1;rounded=0;entryX=0.834;entryY=0.122;entryDx=0;entryDy=0;entryPerimeter=0;" parent="1" edge="1" target="Vk1aVY3iFJ2abiyEyi6g-46">
          <mxGeometry width="50" height="50" relative="1" as="geometry">
            <mxPoint x="385" y="530" as="sourcePoint" />
            <mxPoint x="275" y="570" as="targetPoint" />
            <Array as="points">
              <mxPoint x="385" y="560" />
              <mxPoint x="267" y="560" />
            </Array>
          </mxGeometry>
        </mxCell>
        <mxCell id="Vk1aVY3iFJ2abiyEyi6g-53" value="" style="line;strokeWidth=4;fillColor=default;align=left;verticalAlign=middle;spacingTop=-1;spacingLeft=3;spacingRight=3;rotatable=0;labelPosition=right;points=[];portConstraint=eastwest;strokeColor=inherit;" parent="1" vertex="1">
          <mxGeometry x="580" y="570" width="110" height="4" as="geometry" />
        </mxCell>
        <mxCell id="Vk1aVY3iFJ2abiyEyi6g-54" value="" style="endArrow=classic;html=1;rounded=0;exitX=0.499;exitY=0.898;exitDx=0;exitDy=0;exitPerimeter=0;" parent="1" edge="1">
          <mxGeometry width="50" height="50" relative="1" as="geometry">
            <mxPoint x="634.83" y="530.002" as="sourcePoint" />
            <mxPoint x="635" y="570" as="targetPoint" />
          </mxGeometry>
        </mxCell>
        <mxCell id="Vk1aVY3iFJ2abiyEyi6g-55" value="" style="endArrow=classic;html=1;rounded=0;entryX=0.5;entryY=0;entryDx=0;entryDy=0;exitX=0.5;exitY=1;exitDx=0;exitDy=0;" parent="1" source="Vk1aVY3iFJ2abiyEyi6g-33" edge="1">
          <mxGeometry width="50" height="50" relative="1" as="geometry">
            <mxPoint x="740" y="530" as="sourcePoint" />
            <mxPoint x="665" y="570" as="targetPoint" />
            <Array as="points">
              <mxPoint x="740" y="550" />
              <mxPoint x="665" y="550" />
            </Array>
          </mxGeometry>
        </mxCell>
        <mxCell id="Vk1aVY3iFJ2abiyEyi6g-56" value="" style="endArrow=classic;html=1;rounded=0;exitX=0.5;exitY=1;exitDx=0;exitDy=0;" parent="1" source="Vk1aVY3iFJ2abiyEyi6g-31" edge="1">
          <mxGeometry width="50" height="50" relative="1" as="geometry">
            <mxPoint x="535" y="530" as="sourcePoint" />
            <mxPoint x="605" y="570" as="targetPoint" />
            <Array as="points">
              <mxPoint x="530" y="550" />
              <mxPoint x="605" y="550" />
            </Array>
          </mxGeometry>
        </mxCell>
        <mxCell id="Vk1aVY3iFJ2abiyEyi6g-61" value="" style="line;strokeWidth=4;fillColor=default;align=left;verticalAlign=middle;spacingTop=-1;spacingLeft=3;spacingRight=3;rotatable=0;labelPosition=right;points=[];portConstraint=eastwest;strokeColor=inherit;" parent="1" vertex="1">
          <mxGeometry x="380" y="650" width="110" height="4" as="geometry" />
        </mxCell>
        <mxCell id="Vk1aVY3iFJ2abiyEyi6g-62" value="" style="endArrow=classic;html=1;rounded=0;exitX=0.504;exitY=1.068;exitDx=0;exitDy=0;exitPerimeter=0;entryX=0.683;entryY=0.021;entryDx=0;entryDy=0;entryPerimeter=0;" parent="1" source="Vk1aVY3iFJ2abiyEyi6g-53" target="Vk1aVY3iFJ2abiyEyi6g-61" edge="1">
          <mxGeometry width="50" height="50" relative="1" as="geometry">
            <mxPoint x="525" y="640" as="sourcePoint" />
            <mxPoint x="575" y="590" as="targetPoint" />
            <Array as="points">
              <mxPoint x="635" y="620" />
              <mxPoint x="455" y="620" />
            </Array>
          </mxGeometry>
        </mxCell>
        <mxCell id="Vk1aVY3iFJ2abiyEyi6g-63" value="" style="endArrow=classic;html=1;rounded=0;exitX=0.504;exitY=1.068;exitDx=0;exitDy=0;exitPerimeter=0;entryX=0.683;entryY=0.021;entryDx=0;entryDy=0;entryPerimeter=0;" parent="1" edge="1">
          <mxGeometry width="50" height="50" relative="1" as="geometry">
            <mxPoint x="235" y="574" as="sourcePoint" />
            <mxPoint x="415" y="650" as="targetPoint" />
            <Array as="points">
              <mxPoint x="235" y="620" />
              <mxPoint x="415" y="620" />
            </Array>
          </mxGeometry>
        </mxCell>
        <mxCell id="Vk1aVY3iFJ2abiyEyi6g-64" value="" style="endArrow=classic;html=1;rounded=0;exitX=0.498;exitY=0.996;exitDx=0;exitDy=0;exitPerimeter=0;entryX=0.5;entryY=0;entryDx=0;entryDy=0;" parent="1" source="Vk1aVY3iFJ2abiyEyi6g-61" target="Vk1aVY3iFJ2abiyEyi6g-9" edge="1">
          <mxGeometry width="50" height="50" relative="1" as="geometry">
            <mxPoint x="425" y="650" as="sourcePoint" />
            <mxPoint x="475" y="600" as="targetPoint" />
          </mxGeometry>
        </mxCell>
        <mxCell id="Vk1aVY3iFJ2abiyEyi6g-65" value="Logging Out" style="edgeLabel;html=1;align=center;verticalAlign=middle;resizable=0;points=[];" parent="Vk1aVY3iFJ2abiyEyi6g-64" vertex="1" connectable="0">
          <mxGeometry x="-0.1406" relative="1" as="geometry">
            <mxPoint as="offset" />
          </mxGeometry>
        </mxCell>
        <mxCell id="Vk1aVY3iFJ2abiyEyi6g-66" value="&lt;b&gt;&lt;font style=&quot;font-size: 16px;&quot;&gt;Finish&lt;/font&gt;&lt;/b&gt;" style="text;html=1;align=center;verticalAlign=middle;resizable=0;points=[];autosize=1;strokeColor=none;fillColor=none;" parent="1" vertex="1">
          <mxGeometry x="400" y="740" width="70" height="30" as="geometry" />
        </mxCell>
        <mxCell id="EHrCVIZnscvrFo70y-NR-2" value="&lt;font style=&quot;font-size: 14px;&quot;&gt;User State Machine Diagram&lt;/font&gt;" style="text;html=1;align=center;verticalAlign=middle;whiteSpace=wrap;rounded=0;fontStyle=0;fontSize=16;labelBorderColor=none;textShadow=0;" parent="1" vertex="1">
          <mxGeometry x="340" y="10" width="190" height="30" as="geometry" />
        </mxCell>
        <mxCell id="EHrCVIZnscvrFo70y-NR-3" value="Alumni Connect Portal" style="text;html=1;align=center;verticalAlign=middle;whiteSpace=wrap;rounded=0;fontStyle=1;fontSize=16;labelBorderColor=none;textShadow=0;" parent="1" vertex="1">
          <mxGeometry x="19" y="10" width="190" height="30" as="geometry" />
        </mxCell>
        <mxCell id="2yD6L1MCemZ6t55t-rIj-1" value="" style="endArrow=classic;html=1;rounded=0;" edge="1" parent="1" source="Vk1aVY3iFJ2abiyEyi6g-35" target="Vk1aVY3iFJ2abiyEyi6g-29">
          <mxGeometry width="50" height="50" relative="1" as="geometry">
            <mxPoint x="350" y="570" as="sourcePoint" />
            <mxPoint x="400" y="520" as="targetPoint" />
          </mxGeometry>
        </mxCell>
      </root>
    </mxGraphModel>
  </diagram>
</mxfile>
